# xmcd
#
# Track frame offsets:
#	150
#	10800
#	23745
#	34220
#	49885
#	62145
#	73060
#	87005
#	98757
#	111297
#	123927
#	132970
#	144842
#	153530
#	163207
#	175925
#	186380
#	198605
#
# Disc length: 2766 seconds
#
# Revision: 1
# Processed by: cddbd v1.5.2PL0 Copyright (c) Steve Scherf et al.
# Submitted via: audiograbber 1.83.01
#
DISCID=fd0acc12
DTITLE=Die Tisner Buam - Du schönes Südtirol
DYEAR=1992
DGENRE=Volksmusik
TTITLE0=Du schönes Südtirol
TTITLE1=Zirkerpolka
TTITLE2=Zweimal mit dir verheiratet sein
TTITLE3=Frühlingsmarsch
TTITLE4=Tiroler Musikanten
TTITLE5=Pfeifkonzert
TTITLE6=Im Dämmerschein
TTITLE7=Die Weinkost
TTITLE8=Franzl Walzer
TTITLE9=Meranerlied
TTITLE10=Hausball
TTITLE11=Liebesträume
TTITLE12=Beim Törggelen
TTITLE13=Mir sein die Tisner Buam
TTITLE14=Pustertal Polka
TTITLE15=Sommerwalzer
TTITLE16=Eine kleine Freundin
TTITLE17=Wir sind Junggesellen
EXTD=
EXTT0=
EXTT1=
EXTT2=
EXTT3=
EXTT4=
EXTT5=
EXTT6=
EXTT7=
EXTT8=
EXTT9=
EXTT10=
EXTT11=
EXTT12=
EXTT13=
EXTT14=
EXTT15=
EXTT16=
EXTT17=
PLAYORDER=
